<?xml version="1.0" encoding="UTF-8" standalone="no"?>
<svg
   xmlns:dc="http://purl.org/dc/elements/1.1/"
   xmlns:cc="http://creativecommons.org/ns#"
   xmlns:rdf="http://www.w3.org/1999/02/22-rdf-syntax-ns#"
   xmlns:svg="http://www.w3.org/2000/svg"
   xmlns="http://www.w3.org/2000/svg"
   xmlns:sodipodi="http://sodipodi.sourceforge.net/DTD/sodipodi-0.dtd"
   xmlns:inkscape="http://www.inkscape.org/namespaces/inkscape"
   sodipodi:docname="place_icon_white.svg"
   inkscape:version="0.48.4 r9939"
   xml:space="preserve"
   width="24px"
   viewBox="0 0 24 24"
   version="1.1"
   id="Layer_1"
   height="24px"
   enable-background="new 0 0 24 24"><metadata
     id="metadata9"><rdf:RDF><cc:Work
         rdf:about=""><dc:format>image/svg+xml</dc:format><dc:type
           rdf:resource="http://purl.org/dc/dcmitype/StillImage" /><dc:title></dc:title></cc:Work></rdf:RDF></metadata><defs
     id="defs7" /><sodipodi:namedview
     pagecolor="#ffffff"
     bordercolor="#666666"
     borderopacity="1"
     objecttolerance="10"
     gridtolerance="10"
     guidetolerance="10"
     inkscape:pageopacity="0"
     inkscape:pageshadow="2"
     inkscape:window-width="1549"
     inkscape:window-height="876"
     id="namedview5"
     showgrid="false"
     inkscape:zoom="13.906433"
     inkscape:cx="12.355932"
     inkscape:cy="13.19143"
     inkscape:window-x="51"
     inkscape:window-y="24"
     inkscape:window-maximized="1"
     inkscape:current-layer="Layer_1" /><path
     d="M11.513,12.38c-2.117,0-3.835-1.729-3.835-3.862c0-2.135,1.718-3.863,3.835-3.863s3.835,1.729,3.835,3.863  C15.348,10.65,13.63,12.38,11.513,12.38 M11.513,0C6.825,0,3.025,3.827,3.025,8.549c0,4.46,3.844,10.213,6.411,13.014  c0.959,1.045,2.076,2.454,2.076,2.454s1.2-1.417,2.229-2.493C16.306,18.84,20,13.451,20,8.549C20,3.827,16.2,0,11.513,0"
     id="path3" /><path
     style="fill:#ff0000;fill-opacity:1"
     d="M 11.386057,1.2100448 C 9.1751021,1.2097152 7.0562817,2.3324228 5.7299522,4.0886586 4.2681783,5.9112483 3.9171611,8.4388696 4.5052492,10.668347 c 0.7015438,2.703399 2.1085829,5.176468 3.7094938,7.441887 1.0230446,1.429367 2.18296,2.751339 3.324121,4.086051 2.126943,-2.318644 4.21601,-4.702943 5.590938,-7.570687 1.246893,-2.500878 2.136595,-5.4242065 1.364027,-8.2088802 -0.860042,-3.0604511 -3.928898,-5.331016 -7.107772,-5.206673 z m 0.09213,2.2741274 c 2.5033,-0.061509 4.823726,2.0242664 5.013417,4.5280301 0.269808,2.3581017 -1.350614,4.7531817 -3.651637,5.3549857 C 10.934297,13.937119 8.7582407,13.185924 7.5748716,11.594178 6.0454302,9.752645 6.1705639,6.7779506 7.8872271,5.0931397 8.7890858,4.0565275 10.110868,3.4930411 11.478191,3.4841722 z"
     id="path3079"
     inkscape:connector-curvature="0" /></svg>